<mxfile host="app.diagrams.net" modified="2023-06-13T12:55:06.711Z" agent="Mozilla/5.0 (Windows NT 10.0; Win64; x64) AppleWebKit/537.36 (KHTML, like Gecko) Chrome/114.0.0.0 Safari/537.36" version="21.3.8" etag="gKs7_XGBrcx1Oc-Mbb9E" type="github">
  <diagram name="PÃ¡gina-1" id="gcVW89GyBY1--w9BklJH">
    <mxGraphModel>
      <root>
        <mxCell id="0" />
        <mxCell id="1" parent="0" />
      </root>
    </mxGraphModel>
  </diagram>
</mxfile>
